<svg id="Calque_1" data-name="Calque 1" xmlns="http://www.w3.org/2000/svg" viewBox="0 0 1920 1080"><defs><style>.cls-1{opacity:0.07;}.cls-2{fill:none;stroke:#4d4d4d;stroke-miterlimit:10;stroke-width:10px;}</style></defs><title>background</title><g class="cls-1"><circle class="cls-2" cx="1932.37" cy="-11.03" r="27"/><circle class="cls-2" cx="1932.37" cy="-11.03" r="45.18"/><circle class="cls-2" cx="1932.37" cy="-11.03" r="63.37"/><circle class="cls-2" cx="1932.37" cy="-11.03" r="81.55"/><circle class="cls-2" cx="1932.37" cy="-11.03" r="99.74"/><circle class="cls-2" cx="1932.37" cy="-11.03" r="117.92"/><circle class="cls-2" cx="1932.37" cy="-11.03" r="136.1"/><circle class="cls-2" cx="1932.37" cy="-11.03" r="154.29"/><circle class="cls-2" cx="1932.37" cy="-11.03" r="172.47"/><circle class="cls-2" cx="1932.37" cy="-11.03" r="190.65"/><circle class="cls-2" cx="1932.37" cy="-11.03" r="208.84"/><circle class="cls-2" cx="1932.37" cy="-11.03" r="227.02"/><circle class="cls-2" cx="1932.37" cy="-11.03" r="245.21"/><circle class="cls-2" cx="1932.37" cy="-11.03" r="263.39"/><circle class="cls-2" cx="1932.37" cy="-11.03" r="281.57"/><circle class="cls-2" cx="1932.37" cy="-11.03" r="299.76"/><circle class="cls-2" cx="1932.37" cy="-11.03" r="317.94"/><circle class="cls-2" cx="1932.37" cy="-11.03" r="336.13"/><circle class="cls-2" cx="1932.37" cy="-11.03" r="354.31"/><circle class="cls-2" cx="1932.37" cy="-11.03" r="372.49"/><circle class="cls-2" cx="1932.37" cy="-11.03" r="390.68"/><circle class="cls-2" cx="1932.37" cy="-11.03" r="408.86"/><circle class="cls-2" cx="1932.37" cy="-11.03" r="427.04"/><circle class="cls-2" cx="1932.37" cy="-11.03" r="445.23"/><circle class="cls-2" cx="1932.37" cy="-11.03" r="463.41"/><circle class="cls-2" cx="1932.37" cy="-11.03" r="481.6"/><circle class="cls-2" cx="1932.37" cy="-11.03" r="499.78"/><circle class="cls-2" cx="1932.37" cy="-11.03" r="517.96"/><circle class="cls-2" cx="1932.37" cy="-11.03" r="536.15"/><circle class="cls-2" cx="1932.37" cy="-11.03" r="554.33"/><circle class="cls-2" cx="1932.37" cy="-11.03" r="572.51"/><circle class="cls-2" cx="1932.37" cy="-11.03" r="590.7"/><circle class="cls-2" cx="1932.37" cy="-11.03" r="608.88"/><circle class="cls-2" cx="1932.37" cy="-11.03" r="627.07"/><circle class="cls-2" cx="1932.37" cy="-11.03" r="645.25"/><circle class="cls-2" cx="1932.37" cy="-11.03" r="663.43"/><circle class="cls-2" cx="1932.37" cy="-11.03" r="681.62"/><circle class="cls-2" cx="1932.37" cy="-11.03" r="699.8"/><circle class="cls-2" cx="1932.37" cy="-11.03" r="717.99"/><circle class="cls-2" cx="1932.37" cy="-11.03" r="736.17"/><circle class="cls-2" cx="1932.37" cy="-11.03" r="754.35"/><circle class="cls-2" cx="1932.37" cy="-11.03" r="772.54"/><circle class="cls-2" cx="1932.37" cy="-11.03" r="790.72"/><circle class="cls-2" cx="1932.37" cy="-11.03" r="808.9"/><circle class="cls-2" cx="1932.37" cy="-11.03" r="827.09"/><circle class="cls-2" cx="1932.37" cy="-11.03" r="845.27"/><circle class="cls-2" cx="1932.37" cy="-11.03" r="863.46"/><circle class="cls-2" cx="1932.37" cy="-11.03" r="881.64"/><circle class="cls-2" cx="1932.37" cy="-11.03" r="899.82"/><circle class="cls-2" cx="1932.37" cy="-11.03" r="918.01"/><circle class="cls-2" cx="1932.37" cy="-11.03" r="936.19"/><circle class="cls-2" cx="1932.37" cy="-11.03" r="954.38"/><circle class="cls-2" cx="1932.37" cy="-11.03" r="972.56"/><circle class="cls-2" cx="1932.37" cy="-11.03" r="990.74"/><circle class="cls-2" cx="1932.37" cy="-11.03" r="1008.93"/><circle class="cls-2" cx="1932.37" cy="-11.03" r="1027.11"/><circle class="cls-2" cx="1932.37" cy="-11.03" r="1045.29"/><circle class="cls-2" cx="1932.37" cy="-11.03" r="1063.48"/><circle class="cls-2" cx="1932.37" cy="-11.03" r="1081.66"/><circle class="cls-2" cx="1932.37" cy="-11.03" r="1099.85"/><circle class="cls-2" cx="1932.37" cy="-11.03" r="1118.03"/><circle class="cls-2" cx="1932.37" cy="-11.03" r="1136.21"/><circle class="cls-2" cx="1932.37" cy="-11.03" r="1154.4"/><circle class="cls-2" cx="1932.37" cy="-11.03" r="1172.58"/><circle class="cls-2" cx="1932.37" cy="-11.03" r="1190.76"/><circle class="cls-2" cx="1932.37" cy="-11.03" r="1208.95"/><circle class="cls-2" cx="1932.37" cy="-11.03" r="1227.13"/><circle class="cls-2" cx="1932.37" cy="-11.03" r="1245.32"/><circle class="cls-2" cx="1932.37" cy="-11.03" r="1263.5"/><circle class="cls-2" cx="1932.37" cy="-11.03" r="1281.68"/><circle class="cls-2" cx="1932.37" cy="-11.03" r="1299.87"/><circle class="cls-2" cx="1932.37" cy="-11.03" r="1318.05"/><circle class="cls-2" cx="1932.37" cy="-11.03" r="1336.24"/><circle class="cls-2" cx="1932.37" cy="-11.03" r="1354.42"/><circle class="cls-2" cx="1932.37" cy="-11.03" r="1372.6"/><circle class="cls-2" cx="1932.37" cy="-11.03" r="1390.79"/><circle class="cls-2" cx="1932.37" cy="-11.03" r="1408.97"/><circle class="cls-2" cx="1932.37" cy="-11.03" r="1427.15"/><circle class="cls-2" cx="1932.37" cy="-11.03" r="1445.34"/><circle class="cls-2" cx="1932.37" cy="-11.03" r="1463.52"/><circle class="cls-2" cx="1932.37" cy="-11.03" r="1481.71"/><circle class="cls-2" cx="1932.37" cy="-11.03" r="1499.89"/><circle class="cls-2" cx="1932.37" cy="-11.03" r="1518.07"/><circle class="cls-2" cx="1932.37" cy="-11.03" r="1536.26"/><circle class="cls-2" cx="1932.37" cy="-11.03" r="1554.44"/><circle class="cls-2" cx="1932.37" cy="-11.03" r="1572.62"/><circle class="cls-2" cx="1932.37" cy="-11.03" r="1590.81"/><circle class="cls-2" cx="1932.37" cy="-11.03" r="1608.99"/><circle class="cls-2" cx="1932.37" cy="-11.03" r="1627.18"/><circle class="cls-2" cx="1932.37" cy="-11.03" r="1645.36"/><circle class="cls-2" cx="1932.37" cy="-11.03" r="1663.54"/><circle class="cls-2" cx="1932.37" cy="-11.03" r="1681.73"/><circle class="cls-2" cx="1932.37" cy="-11.03" r="1699.91"/><circle class="cls-2" cx="1932.37" cy="-11.03" r="1718.1"/><circle class="cls-2" cx="1932.37" cy="-11.03" r="1736.28"/><circle class="cls-2" cx="1932.37" cy="-11.03" r="1754.46"/><circle class="cls-2" cx="1932.37" cy="-11.03" r="1772.65"/><circle class="cls-2" cx="1932.37" cy="-11.03" r="1790.83"/><circle class="cls-2" cx="1932.37" cy="-11.03" r="1809.01"/><circle class="cls-2" cx="1932.37" cy="-11.03" r="1827.2"/><circle class="cls-2" cx="1932.37" cy="-11.03" r="1845.38"/><circle class="cls-2" cx="1932.37" cy="-11.03" r="1863.57"/><circle class="cls-2" cx="1932.37" cy="-11.03" r="1881.75"/><circle class="cls-2" cx="1932.37" cy="-11.03" r="1899.93"/><circle class="cls-2" cx="1932.37" cy="-11.03" r="1918.12"/><circle class="cls-2" cx="1932.37" cy="-11.03" r="1936.3"/><circle class="cls-2" cx="1932.37" cy="-11.03" r="1954.49"/><circle class="cls-2" cx="1932.37" cy="-11.03" r="1972.67"/><circle class="cls-2" cx="1932.37" cy="-11.03" r="1990.85"/><circle class="cls-2" cx="1932.37" cy="-11.03" r="2009.04"/><circle class="cls-2" cx="1932.37" cy="-11.03" r="2027.22"/><circle class="cls-2" cx="1932.37" cy="-11.03" r="2045.4"/><circle class="cls-2" cx="1932.37" cy="-11.03" r="2063.59"/><circle class="cls-2" cx="1932.37" cy="-11.03" r="2081.77"/><circle class="cls-2" cx="1932.37" cy="-11.03" r="2099.96"/><circle class="cls-2" cx="1932.37" cy="-11.03" r="2118.14"/><circle class="cls-2" cx="1932.37" cy="-11.03" r="2136.32"/><circle class="cls-2" cx="1932.37" cy="-11.03" r="2154.51"/><circle class="cls-2" cx="1932.37" cy="-11.03" r="2172.69"/><circle class="cls-2" cx="1932.37" cy="-11.03" r="2190.87"/><circle class="cls-2" cx="1932.37" cy="-11.03" r="2209.06"/><circle class="cls-2" cx="1932.37" cy="-11.03" r="2227.24"/><circle class="cls-2" cx="1932.37" cy="-11.03" r="2245.43"/><circle class="cls-2" cx="1932.37" cy="-11.03" r="2263.61"/><circle class="cls-2" cx="1932.37" cy="-11.03" r="2281.79"/><circle class="cls-2" cx="1932.37" cy="-11.03" r="2299.98"/><circle class="cls-2" cx="1932.37" cy="-11.03" r="2318.16"/><circle class="cls-2" cx="1932.37" cy="-11.03" r="2336.35"/><circle class="cls-2" cx="1932.37" cy="-11.03" r="2354.53"/><circle class="cls-2" cx="1932.37" cy="-11.03" r="2372.71"/><circle class="cls-2" cx="1932.37" cy="-11.03" r="2390.9"/><circle class="cls-2" cx="1932.37" cy="-11.03" r="2409.08"/><circle class="cls-2" cx="1932.37" cy="-11.03" r="2427.26"/><circle class="cls-2" cx="1932.37" cy="-11.03" r="2445.45"/><circle class="cls-2" cx="1932.37" cy="-11.03" r="2463.63"/><circle class="cls-2" cx="1932.37" cy="-11.03" r="2481.82"/><circle class="cls-2" cx="1932.37" cy="-11.03" r="2500"/></g></svg>